<?xml version="1.0" standalone="no"?>
<!DOCTYPE svg PUBLIC "-//W3C//DTD SVG 20010904//EN"
 "http://www.w3.org/TR/2001/REC-SVG-20010904/DTD/svg10.dtd">
<svg version="1.0" xmlns="http://www.w3.org/2000/svg"
 width="1280.000000pt" height="800.000000pt" viewBox="0 0 1280.000000 800.000000"
 preserveAspectRatio="xMidYMid meet">

<g transform="translate(0.000000,800.000000) scale(0.100000,-0.100000)"
fill="#000000" stroke="none">
<path d="M6250 6494 c-371 -32 -655 -109 -951 -255 -764 -379 -1270 -1094
-1380 -1949 -16 -122 -16 -458 0 -580 72 -566 323 -1081 716 -1475 394 -393
909 -644 1475 -716 122 -16 458 -16 580 0 566 72 1081 323 1475 716 393 394
644 909 716 1475 16 122 16 458 0 580 -72 559 -319 1073 -704 1462 -393 398
-922 659 -1477 728 -93 11 -378 20 -450 14z m404 -259 c434 -51 857 -231 1185
-506 l74 -62 -79 -16 c-93 -19 -154 -52 -213 -116 -82 -90 -121 -218 -101
-340 19 -120 55 -203 166 -382 283 -457 302 -746 91 -1353 -29 -85 -98 -305
-153 -487 -54 -183 -101 -329 -105 -325 -9 10 -812 2403 -808 2406 2 1 66 8
141 14 76 6 146 17 157 24 50 31 50 113 0 150 -24 18 -33 18 -180 6 -196 -16
-749 -16 -942 0 -127 10 -152 10 -176 -3 -33 -17 -41 -33 -41 -84 0 -66 25
-79 181 -93 l134 -13 172 -470 c95 -259 172 -479 173 -490 0 -34 -487 -1481
-494 -1465 -6 15 -816 2422 -816 2425 0 1 48 5 108 9 146 10 193 20 214 46 34
42 17 120 -31 140 -19 7 -63 8 -156 0 -72 -5 -244 -13 -384 -17 l-254 -6 19
32 c37 63 183 239 273 329 486 486 1170 726 1845 647z m1783 -1281 c30 -64 75
-177 99 -250 318 -965 -48 -2015 -898 -2581 -54 -36 -101 -64 -103 -61 -3 2
155 465 351 1029 429 1236 428 1233 461 1389 25 114 27 145 28 357 0 128 1
233 3 233 2 0 28 -52 59 -116z m-3549 -1514 c292 -800 529 -1456 527 -1458 -6
-6 -141 68 -237 130 -847 542 -1232 1622 -919 2576 48 146 82 226 91 215 4 -4
246 -663 538 -1463z m1905 -593 c191 -523 348 -956 350 -961 1 -5 -38 -22 -87
-38 -268 -84 -582 -116 -872 -87 -116 11 -325 50 -385 71 l-36 13 336 977
c185 538 338 978 341 978 3 0 161 -429 353 -953z"/>
</g>
</svg>
